<?xml version="1.0" standalone="no"?>
<!DOCTYPE svg PUBLIC "-//W3C//DTD SVG 1.1//EN" "http://www.w3.org/Graphics/SVG/1.1/DTD/svg11.dtd" >
<svg xmlns="http://www.w3.org/2000/svg" xmlns:xlink="http://www.w3.org/1999/xlink" version="1.1">
<metadata>
Created by FontForge 20150102 at Tue Jan 20 01:10:32 2015
 By uniteet7
Copyright 2014 Adobe Systems Incorporated. All rights reserved.
</metadata>
<defs>
<font id="Axis" horiz-adv-x="500" >
  <font-face 
    font-family="Axis"
    font-weight="12"
    font-style="italic"
    font-stretch="normal"
    units-per-em="1000"
    panose-1="0 0 0 0 0 0 0 0 0 0"
    ascent="750"
    descent="-250"
    x-height="515"
    cap-height="650"
    bbox="-71 -324 1094 925"
    underline-thickness="50"
    underline-position="-50"
    slope="13"
    stemh="150"
    stemv="156"
    unicode-range="U+0020-2212"
  />
<missing-glyph 
 />
    <glyph glyph-name="f_i" unicode="fi" horiz-adv-x="626" 
d="M296 515l257 -1v-514h-155v394h-101v-394h-1h-155h-1v394h-90v121h91v40c0 190 151 212 316 158l-9 -112s-152 32 -152 -46v-40z" />
    <glyph glyph-name="ffi" unicode="ffi" horiz-adv-x="936" 
d="M593 515l256 -1v-514h-155v394h-101v-394v0h-156v0v394h-148v-394v0h-156v0v394h-91v121h91v40c0 151 144 207 317 149c-28 -22 -56 -53 -66 -102c-45 4 -95 0 -95 -47v-40h148v40c0 190 151 212 316 158l-8 -111s-152 31 -152 -47v-40z" />
    <glyph glyph-name=".notdef" 
 />
    <glyph glyph-name="g" unicode="g" horiz-adv-x="645" 
d="M442 515h155v-503c0 -137 -97 -313 -313 -313c-96 0 -172 50 -194 67l104 116c25 -17 56 -28 90 -28c83 0 151 65 157 146c-38 -19 -81 -30 -126 -30c-155 0 -280 125 -280 280c0 154 125 280 280 280c46 0 90 -14 127 -44v29zM302 117c71 0 140 60 140 136
c0 73 -60 142 -140 142c-76 0 -138 -62 -138 -139s62 -139 138 -139z" />
    <glyph glyph-name="D" unicode="D" horiz-adv-x="747" 
d="M400 650c199 0 325 -145 325 -324c0 -180 -145 -326 -325 -326h-308v650h308zM415 156c81 3 154 73 154 170s-72 168 -154 168h-167v-338h167z" />
    <glyph glyph-name="b" unicode="b" horiz-adv-x="691" 
d="M399 534c146 0 276 -126 276 -276c0 -147 -125 -276 -276 -276c-60 0 -117 19 -168 57v-39h-156v707h156v-230c47 36 106 57 168 57zM399 119c76 0 139 62 139 139s-63 139 -139 139c-77 0 -139 -62 -139 -139s62 -139 139 -139z" />
    <glyph glyph-name="h" unicode="h" horiz-adv-x="721" 
d="M416 522c214 0 259 -168 259 -290v-232h-154v232c0 76 -31 126 -123 126c-66 0 -120 -55 -121 -123v-235h-157v708h157v-246c1 1 55 60 139 60z" />
    <glyph glyph-name="O" unicode="O" horiz-adv-x="806" 
d="M421 667c189 0 342 -154 342 -343s-153 -342 -342 -342c-190 0 -343 153 -343 342s153 343 343 343zM421 132c106 0 192 86 192 192s-86 193 -192 193c-107 0 -193 -87 -193 -193s86 -192 193 -192z" />
    <glyph glyph-name="Q" unicode="Q" horiz-adv-x="915" 
d="M831 77l-109 -110l-66 66c-51 -31 -112 -50 -178 -50c-189 0 -342 154 -342 343c0 188 153 342 342 342s343 -154 343 -342c0 -68 -20 -131 -54 -185zM478 133c24 0 47 5 68 12l-77 77l110 110l77 -79c10 22 15 47 15 73c0 106 -87 192 -193 192s-192 -86 -192 -192
c0 -107 86 -193 192 -193z" />
    <glyph glyph-name="E" unicode="E" horiz-adv-x="585" 
d="M558 510h-333v-116h263v-139h-263v-116h333v-139h-489v0v650v0h489v-140z" />
    <glyph glyph-name="F" unicode="F" horiz-adv-x="601" 
d="M577 510h-334v-148h263v-140h-263v-222h-156v510v140v0h490v-140z" />
    <glyph glyph-name="G" unicode="G" horiz-adv-x="738" 
d="M699 386v-264h-1c-62 -84 -162 -138 -275 -138c-189 0 -343 153 -343 342s154 343 343 343c113 0 205 -47 268 -132l-119 -76c-40 37 -84 58 -149 58c-106 0 -193 -87 -193 -193s87 -192 193 -192c55 0 104 23 139 59v68h-197v125h334z" />
    <glyph glyph-name="H" unicode="H" horiz-adv-x="726" 
d="M525 650h156v-650h-156v238h-284v-238h-156v650h156v-272h284v272z" />
    <glyph glyph-name="I" unicode="I" horiz-adv-x="281" 
d="M65 650h156v-650h-156v650z" />
    <glyph glyph-name="J" unicode="J" horiz-adv-x="585" 
d="M388 650h156v-370c0 -180 -82 -297 -262 -297c-145 0 -246 117 -246 282h140c0 -78 47 -142 106 -142c58 0 106 55 106 158v369z" />
    <glyph glyph-name="K" unicode="K" horiz-adv-x="801" 
d="M523 0l-196 251l-66 -68v-183h-156v650h156v-261l268 261h198l-292 -284l309 -366h-221z" />
    <glyph glyph-name="L" unicode="L" horiz-adv-x="708" 
d="M240 156h407v-156h-563v650h156v-494z" />
    <glyph glyph-name="M" unicode="M" horiz-adv-x="833" 
d="M618 650h156v-650h-156v332l-153 -332h-68l-150 329v-329h-157v650h157v-3l184 -365l187 368v-1v1z" />
    <glyph glyph-name="N" unicode="N" horiz-adv-x="828" 
d="M613 650h156v-650h-156l-324 389v-389h-156v650h156v0v0l324 -405v405z" />
    <glyph glyph-name="P" unicode="P" horiz-adv-x="659" 
d="M638 409v-15v-15c-8 -134 -120 -241 -256 -241h-134v-138h-159v650h316c134 0 226 -114 233 -241zM380 297c54 0 97 43 97 97c0 53 -42 96 -95 97h-134v-194h132v0z" />
    <glyph glyph-name="space" unicode=" " horiz-adv-x="421" 
 />
    <glyph glyph-name="A" unicode="A" horiz-adv-x="856" 
d="M631 0l-44 89h-315l-44 -89h-176l323 650h118l311 -650h-173zM337 216h189l-97 209z" />
    <glyph glyph-name="B" unicode="B" horiz-adv-x="685" 
d="M591 346c30 -35 53 -81 53 -138c0 -130 -102 -208 -201 -208h-367v650h348c94 0 194 -68 194 -194c0 -43 -11 -80 -27 -110zM232 523v-127h183c30 1 57 27 57 63s-27 64 -57 64h-183zM437 131c35 0 64 30 64 69c0 41 -30 69 -64 69h-205v-138h205z" />
    <glyph glyph-name="C" unicode="C" horiz-adv-x="714" 
d="M556 198l118 -76c-62 -85 -163 -139 -276 -139c-189 0 -342 153 -342 342s153 343 342 343c113 0 214 -55 276 -140l-118 -76c-44 40 -93 66 -158 66c-106 0 -192 -87 -192 -193s86 -192 192 -192c65 0 106 21 158 65z" />
    <glyph glyph-name="a" unicode="a" horiz-adv-x="714" 
d="M487 514h154v-514h-154v41c-19 -15 -40 -27 -62 -37c-34 -14 -70 -21 -107 -21c-38 0 -74 7 -108 21c-32 14 -62 34 -87 59s-45 55 -59 88c-14 34 -21 70 -21 107s7 73 21 107c14 32 34 62 59 87s55 45 87 59c34 14 70 22 108 22c37 0 73 -8 107 -22
c22 -10 43 -22 62 -37v40zM318 119c76 0 138 62 138 139c0 76 -62 138 -138 138c-77 0 -139 -62 -139 -138c0 -77 62 -139 139 -139z" />
    <glyph glyph-name="R" unicode="R" horiz-adv-x="723" 
d="M673 0h-196l-107 162h-114v-162h-159v650h316c133 0 233 -114 233 -256c0 -94 -47 -161 -116 -198zM256 490v-185h132v0c53 0 97 35 97 89c0 53 -43 96 -96 96h-133z" />
    <glyph glyph-name="S" unicode="S" horiz-adv-x="703" 
d="M355 -17c-199 0 -291 130 -291 218h169c0 -1 7 -89 122 -89c62 0 118 37 118 77c0 83 -151 89 -194 98c-76 15 -205 49 -205 172c0 115 123 209 273 209c183 0 273 -93 273 -180h-161c0 16 -27 50 -112 50c-57 0 -104 -35 -104 -79c0 -53 101 -53 137 -59
c91 -17 262 -39 262 -211c0 -112 -132 -206 -287 -206z" />
    <glyph glyph-name="T" unicode="T" horiz-adv-x="725" 
d="M693 650v-140h-247v-510h-156v510h-247v140h650z" />
    <glyph glyph-name="U" unicode="U" horiz-adv-x="730" 
d="M544 650h159v-319c0 -209 -146 -348 -330 -348c-185 0 -331 139 -331 348v319h159v-319c0 -102 72 -187 172 -187c99 0 171 85 171 187v319z" />
    <glyph glyph-name="V" unicode="V" horiz-adv-x="677" 
d="M515 650h178l-278 -650h-156l-279 650h178l179 -398z" />
    <glyph glyph-name="W" unicode="W" horiz-adv-x="1030" 
d="M916 650h178l-279 -650h-172l-121 361l-121 -361h-172l-279 650h178l179 -398l138 398h154l139 -398z" />
    <glyph glyph-name="X" unicode="X" horiz-adv-x="761" 
d="M727 549l-221 -224l221 -223l-119 -119l-219 222l-224 -221l-119 119l223 224l-223 220l119 119l224 -220l219 222z" />
    <glyph glyph-name="Y" unicode="Y" horiz-adv-x="749" 
d="M553 650h194l-273 -376v-274h-194v274l-274 376h194l177 -236z" />
    <glyph glyph-name="Z" unicode="Z" horiz-adv-x="697" 
d="M641 159v-159h-546v159l327 339h-327v152h546v-152v0v0l-340 -339h340z" />
    <glyph glyph-name="c" unicode="c" horiz-adv-x="606" 
d="M439 174l107 -89c-56 -56 -120 -102 -214 -102c-142 0 -275 120 -275 275c0 145 122 275 275 275c85 0 161 -41 217 -105l-108 -90c-25 36 -67 59 -113 59c-77 0 -140 -62 -140 -139s63 -139 140 -139c45 0 85 21 111 55v0z" />
    <glyph glyph-name="d" unicode="d" horiz-adv-x="707" 
d="M492 707h156v-707h-156v39c-48 -35 -106 -57 -169 -57c-148 0 -277 126 -277 277c0 143 122 276 277 276c60 0 118 -20 169 -57v229zM323 119c77 0 139 63 139 140c0 76 -62 139 -139 139s-139 -63 -139 -139c0 -77 62 -140 139 -140z" />
    <glyph glyph-name="e" unicode="e" horiz-adv-x="616" 
d="M453 168l112 -69c-57 -66 -126 -116 -225 -116c-141 0 -258 105 -273 245c-17 157 110 305 274 305c171 0 276 -168 249 -329h-383c21 -54 73 -90 133 -90c42 0 81 19 113 54zM341 402c-73 0 -134 -48 -134 -99h255c0 54 -62 99 -121 99z" />
    <glyph glyph-name="f" unicode="f" 
d="M150 556c0 151 125 204 290 150v-98s-134 25 -134 -52v-40h120v-122h-1h-119v-394v0h-156v0v394h-91v122h91v40z" />
    <glyph glyph-name="i" unicode="i" horiz-adv-x="264" 
d="M81 0v513h156v-513h-156zM249 664c0 -50 -40 -90 -90 -90s-91 40 -91 90s41 91 91 91s90 -41 90 -91z" />
    <glyph glyph-name="j" unicode="j" horiz-adv-x="428" 
d="M187 513h155v-489c0 -42 -8 -96 -25 -135c-38 -95 -127 -165 -228 -185v161c57 23 98 72 98 159v489zM355 663c0 -49 -41 -90 -91 -90c-49 0 -90 41 -90 90c0 50 41 91 90 91c50 0 91 -41 91 -91z" />
    <glyph glyph-name="k" unicode="k" horiz-adv-x="749" 
d="M403 313l269 -313h-207l-150 210l-66 -65v-145h-156v707h156v-344l162 152h190z" />
    <glyph glyph-name="l" unicode="l" horiz-adv-x="261" 
d="M69 0v707h156v-707h-156z" />
    <glyph glyph-name="m" unicode="m" horiz-adv-x="1071" 
d="M826 528c162 -26 198 -164 198 -273v-255h-155v255c0 82 -29 125 -120 125c-66 0 -117 -54 -117 -122v-258h-155v255c0 82 -29 125 -120 125c-66 0 -117 -54 -117 -122c-1 -64 0 -258 0 -258h-158v515h156v-41c1 1 54 58 138 58c114 0 179 -45 215 -106
c13 21 30 42 53 61c50 41 114 51 182 41z" />
    <glyph glyph-name="n" unicode="n" horiz-adv-x="643" 
d="M356 532c211 0 256 -156 256 -277v-255h-155v255c0 82 -28 125 -120 125c-66 0 -116 -54 -117 -122v-258h-157v515h155v-41c1 1 54 58 138 58z" />
    <glyph glyph-name="o" unicode="o" horiz-adv-x="648" 
d="M598 362c14 -34 21 -70 22 -107c0 -37 -8 -73 -22 -107c-14 -33 -34 -62 -59 -87c-25 -26 -54 -45 -87 -59c-34 -15 -70 -22 -107 -22s-73 7 -107 21c-33 14 -62 34 -88 59c-25 25 -45 55 -59 87c-14 34 -21 70 -21 107c-1 37 7 73 21 107c14 33 34 63 59 88s54 45 87 59
c34 14 70 22 107 22s73 -7 107 -22c33 -13 62 -33 88 -58c25 -26 45 -55 59 -88zM345 116c76 0 138 63 138 139c0 77 -62 138 -139 138c-76 0 -138 -62 -138 -138c0 -77 62 -139 139 -139z" />
    <glyph glyph-name="p" unicode="p" horiz-adv-x="695" 
d="M658 368c14 -34 22 -70 22 -107s-8 -73 -22 -107c-14 -33 -34 -62 -59 -88c-25 -25 -55 -45 -87 -59c-34 -14 -70 -21 -108 -21c-37 0 -73 7 -107 21c-22 10 -42 22 -61 36v-251h-155v723h155v-36c19 14 39 26 61 36c34 14 70 21 107 21c38 0 74 -7 108 -21
c32 -14 62 -34 87 -59c25 -26 45 -55 59 -88zM404 122c77 0 139 62 139 139s-62 139 -139 139c-76 0 -138 -62 -138 -139s62 -139 138 -139z" />
    <glyph glyph-name="q" unicode="q" horiz-adv-x="720" 
d="M89 151c-14 34 -22 71 -22 108s8 73 22 107c14 33 34 63 59 88s55 45 88 59c34 15 70 22 107 22c38 0 74 -7 108 -22c22 -9 42 -21 60 -35v39h156v-702h-156v224c-18 -14 -38 -25 -60 -35c-34 -14 -70 -21 -108 -21c-37 0 -73 7 -107 21c-33 14 -63 34 -88 60
c-25 25 -45 54 -59 87zM343 398c-76 0 -139 -62 -139 -139s63 -139 139 -139c77 0 139 62 139 139s-62 139 -139 139z" />
    <glyph glyph-name="r" unicode="r" horiz-adv-x="508" 
d="M397 529c16 0 34 -2 48 -6v-131c-10 2 -21 3 -32 3c-74 0 -138 -57 -138 -157v-238h-154v514h154v-60c7 17 35 75 122 75z" />
    <glyph glyph-name="s" unicode="s" horiz-adv-x="591" 
d="M532 199c4 -15 6 -31 6 -49c0 -23 -7 -45 -19 -66c-12 -20 -29 -38 -51 -53c-21 -16 -46 -28 -73 -36c-28 -9 -58 -14 -89 -14c-37 0 -72 6 -103 18c-28 10 -54 24 -74 44c-49 50 -58 88 -58 123h146c0 -47 45 -70 89 -70c29 0 86 15 86 54c0 49 -82 61 -126 67
c-42 5 -87 16 -125 40c-36 21 -61 58 -61 104c0 94 99 170 220 170c68 0 124 -16 165 -46c51 -38 56 -81 56 -108h-133c0 35 -61 44 -87 44c-31 0 -76 -8 -76 -48c0 -27 42 -34 95 -42c47 -7 100 -16 143 -41c24 -14 41 -31 54 -52c6 -12 12 -25 15 -39z" />
    <glyph glyph-name="t" unicode="t" horiz-adv-x="475" 
d="M449 397h-140v-166c0 -101 41 -100 97 -101v-139c-193 -34 -258 65 -258 189v217h-76v118h76v192h161v-192h140v-118z" />
    <glyph glyph-name="u" unicode="u" horiz-adv-x="673" 
d="M341 -17c-211 0 -256 156 -256 277v255h155v-255c0 -82 28 -125 119 -125c66 0 116 53 117 121c0 0 2 160 2 259h155v-515h-155v41c-1 -1 -54 -58 -137 -58z" />
    <glyph glyph-name="v" unicode="v" horiz-adv-x="589" 
d="M418 515h151l-199 -515h-172l-199 515h152l133 -309z" />
    <glyph glyph-name="w" unicode="w" horiz-adv-x="931" 
d="M766 515h155l-220 -515h-139l-93 276l-92 -276h-140l-220 515h155l128 -316l106 316h126l106 -316z" />
    <glyph glyph-name="x" unicode="x" horiz-adv-x="594" 
d="M401 260l174 -176l-98 -99l-174 175l-176 -174l-98 98l175 177l-176 174l98 99l177 -174l173 175l99 -98z" />
    <glyph glyph-name="y" unicode="y" horiz-adv-x="522" 
d="M394 515h162s-152 -384 -205 -511c-110 -261 -222 -300 -291 -300v169c55 0 120 58 120 131l-197 511h152l130 -306z" />
    <glyph glyph-name="z" unicode="z" horiz-adv-x="532" 
d="M488 515v-125l-261 -258h261v-132h-434v130l252 260h-252v125h434z" />
    <glyph glyph-name="exclam" unicode="!" horiz-adv-x="324" 
d="M75 723h153v-503h-153v503zM222 132c20 -18 30 -41 30 -66c0 -24 -10 -47 -30 -64c-18 -17 -44 -27 -72 -27c-26 0 -51 10 -70 27c-21 17 -31 40 -31 64c0 25 10 48 31 66c19 16 44 25 70 25c28 0 54 -9 72 -25z" />
    <glyph glyph-name="quotedbl" unicode="&#x22;" horiz-adv-x="397" 
d="M65 707h108v-270h-108v270zM224 707h109v-270h-109v270z" />
    <glyph glyph-name="numbersign" unicode="#" horiz-adv-x="828" 
d="M762 444h-112v-182h112v-150h-112v-112h-150v112h-182v-112h-150v112h-113v150h113v182h-113v150h113v113h150v-113h182v113h150v-113h112v-150zM500 262v182h-182v-182h182z" />
    <glyph glyph-name="dollar" unicode="$" horiz-adv-x="517" 
d="M503 236c0 -77 -76 -145 -176 -166v-70h-131v70c-120 25 -177 114 -177 176h142s6 -74 102 -74c52 0 98 31 98 64c0 70 -126 75 -161 82c-64 13 -172 41 -172 144c0 80 71 148 168 169v70h131v-70c105 -20 158 -84 158 -145h-135c0 14 -23 43 -93 43
c-48 0 -87 -30 -87 -67c0 -44 84 -44 115 -50c76 -13 218 -31 218 -176z" />
    <glyph glyph-name="percent" unicode="%" horiz-adv-x="834" 
d="M453 704h148l-256 -705h-144zM182 730c75 0 137 -56 144 -130c5 -39 -7 -77 -30 -106c-25 -31 -60 -49 -99 -54c-5 -1 -10 -1 -15 -1c-75 0 -137 55 -144 129c-5 39 6 78 31 107c23 31 59 50 98 55h15zM182 522c2 0 5 0 7 1c16 1 31 10 42 23c10 12 15 28 13 45
c-3 32 -30 56 -62 56h-7c-16 -1 -31 -10 -42 -23c-11 -14 -15 -30 -14 -47c4 -31 31 -55 63 -55zM771 132c3 -38 -7 -76 -33 -107c-23 -29 -57 -48 -96 -52c-6 -1 -11 -1 -17 -1c-74 0 -135 55 -144 130c-4 38 7 76 31 107c25 29 59 49 98 52c6 1 10 2 15 2
c75 0 137 -56 146 -131zM625 54c3 0 5 0 7 1c17 2 32 10 42 23c11 13 16 30 14 47c-4 31 -30 55 -63 55h-6c-16 -3 -32 -10 -42 -24c-10 -13 -16 -28 -13 -45c3 -32 30 -57 61 -57z" />
    <glyph glyph-name="ampersand" unicode="&#x26;" horiz-adv-x="814" 
d="M777 89l-99 -87l-96 81c-56 -66 -150 -106 -250 -96h-3c-73 8 -139 41 -184 92c-46 51 -65 115 -56 181c9 64 47 120 100 158c-34 39 -49 87 -43 136c13 102 118 175 234 164c57 -6 107 -31 142 -69c35 -40 51 -88 44 -137c-8 -63 -51 -115 -110 -143l77 -67l55 120
l129 -49l-76 -166zM357 588c-33 0 -61 -24 -61 -54s28 -55 61 -55c34 0 62 25 62 55s-28 54 -62 54zM348 116c53 -6 104 21 127 61l-172 152c-37 -17 -62 -48 -68 -86c-4 -30 6 -60 26 -84c21 -25 51 -40 85 -43h2z" />
    <glyph glyph-name="quotesingle" unicode="'" horiz-adv-x="219" 
d="M56 707h109v-270h-109v270z" />
    <glyph glyph-name="parenleft" unicode="(" horiz-adv-x="342" 
d="M275 -25l-118 -79c-80 109 -131 270 -131 412s48 281 131 413l118 -80c-18 -34 -106 -168 -106 -333c0 -132 49 -220 106 -333z" />
    <glyph glyph-name="parenright" unicode=")" horiz-adv-x="338" 
d="M27 643l118 79c81 -113 131 -273 131 -412c0 -142 -48 -281 -131 -413l-118 80c18 34 106 168 106 333c0 132 -49 220 -106 333z" />
    <glyph glyph-name="asterisk" unicode="*" horiz-adv-x="483" 
d="M439 569v-69h-110l78 -78l-47 -47l-79 78v-111h-68v111l-78 -78l-48 47l79 78h-111v69h111l-79 78l48 47l78 -78v111h68v-111l79 78l47 -47l-78 -78h110z" />
    <glyph glyph-name="plus" unicode="+" horiz-adv-x="631" 
d="M585 408v-129h-203v-203h-129v203h-203v129h203v203h129v-203h203z" />
    <glyph glyph-name="comma" unicode="," horiz-adv-x="298" 
d="M269 69c0 -25 -7 -48 -21 -66v0l-118 -174h-110l49 158c-21 21 -34 50 -34 82c0 65 52 116 117 116c64 0 117 -51 117 -116z" />
    <glyph glyph-name="hyphen" unicode="-" horiz-adv-x="487" 
d="M410 350v-140h-370v140h370z" />
    <glyph glyph-name="period" unicode="." horiz-adv-x="344" 
d="M264 153c22 -21 35 -48 35 -77c0 -28 -13 -55 -35 -75s-52 -31 -83 -31c-32 0 -61 11 -83 31c-24 20 -36 47 -36 75c0 29 12 56 36 77c22 19 51 30 83 30c31 0 61 -11 83 -30z" />
    <glyph glyph-name="slash" unicode="/" horiz-adv-x="412" 
d="M219 703h140l-147 -703h-142z" />
    <glyph glyph-name="zero" unicode="0" horiz-adv-x="677" 
d="M330 722c168 0 304 -166 304 -371c0 -204 -136 -370 -304 -370s-303 166 -303 370c0 205 135 371 303 371zM330 128c88 0 159 100 159 222s-71 221 -159 221c-87 0 -158 -99 -158 -221s71 -222 158 -222z" />
    <glyph glyph-name="one" unicode="1" horiz-adv-x="445" 
d="M213 707h168v-706h-168v456h-160v113s151 18 160 137z" />
    <glyph glyph-name="two" unicode="2" horiz-adv-x="611" 
d="M346 212c-52 -28 -96 -42 -120 -66h341v-146h-507v138c0 103 147 151 228 195c88 48 140 80 140 127c0 25 -3 116 -115 116c-76 0 -116 -39 -116 -116h-137c0 127 78 254 253 254c167 0 254 -127 254 -254c0 -133 -126 -197 -221 -248z" />
    <glyph glyph-name="three" unicode="3" horiz-adv-x="626" 
d="M376 435c127 0 210 -98 210 -236c0 -126 -116 -224 -260 -224v0v0c-143 0 -260 98 -260 224h142c0 -58 53 -93 118 -93s118 35 118 93c0 106 -59 122 -118 122h-147v114l184 147h-281v125h477v-125z" />
    <glyph glyph-name="four" unicode="4" horiz-adv-x="734" 
d="M686 313v-130h-102v-183h-168v183h-349v130l347 394h170v-394h102zM257 313h159v199z" />
    <glyph glyph-name="five" unicode="5" horiz-adv-x="653" 
d="M343 470c170 0 264 -83 264 -241c0 -60 -27 -123 -74 -170c-51 -52 -118 -80 -190 -80c-73 0 -141 23 -192 64c-52 43 -81 100 -81 169h143c0 -55 62 -98 130 -98c67 0 120 63 120 115c0 66 -21 102 -120 102h-254v376h450v-131h-317v-106h121z" />
    <glyph glyph-name="six" unicode="6" horiz-adv-x="608" 
d="M315 464c173 0 259 -119 259 -240c0 -134 -124 -244 -277 -244s-277 110 -277 244c0 36 22 85 72 171c53 90 178 312 178 312h168zM297 110c71 0 130 51 130 114s-59 114 -130 114c-99 0 -130 -69 -130 -114c0 -63 58 -114 130 -114z" />
    <glyph glyph-name="seven" unicode="7" horiz-adv-x="616" 
d="M54 707h506v-134l-241 -573h-193l254 568h-326v139z" />
    <glyph glyph-name="eight" unicode="8" horiz-adv-x="572" 
d="M462 373c54 -42 89 -102 89 -168c0 -124 -120 -225 -266 -225c-148 0 -267 101 -267 225c0 66 34 126 90 168c-37 37 -59 85 -59 138c0 117 106 211 236 211s236 -94 236 -211c0 -53 -23 -101 -59 -138zM285 592c-57 0 -107 -36 -107 -81c0 -43 50 -80 107 -80
s105 37 105 80c0 45 -48 81 -105 81zM285 111c74 0 136 42 136 94s-62 94 -136 94c-75 0 -137 -42 -137 -94s62 -94 137 -94z" />
    <glyph glyph-name="nine" unicode="9" horiz-adv-x="594" 
d="M542 405c-47 -103 -216 -405 -216 -405h-190l131 245c-137 11 -245 115 -245 242c0 134 120 242 268 242s268 -108 268 -242c0 -29 -4 -58 -16 -82zM180 487c0 -55 49 -100 110 -100s110 45 110 100s-49 99 -110 99s-110 -44 -110 -99z" />
    <glyph glyph-name="colon" unicode=":" horiz-adv-x="283" 
d="M244 513c0 -59 -48 -107 -107 -107s-107 48 -107 107s48 106 107 106s107 -47 107 -106zM244 174c0 -59 -48 -107 -107 -107s-107 48 -107 107s48 106 107 106s107 -47 107 -106z" />
    <glyph glyph-name="fraction" unicode="&#x2044;" horiz-adv-x="436" 
d="M220 707h140l-148 -707h-142z" />
    <glyph glyph-name="semicolon" unicode=";" horiz-adv-x="323" 
d="M264 50c0 -24 -7 -46 -20 -64v0l-115 -168h-106l47 153c-20 20 -32 48 -32 79c0 63 50 113 113 113c62 0 113 -50 113 -113zM257 371c0 -59 -48 -107 -107 -107s-107 48 -107 107s48 106 107 106s107 -47 107 -106z" />
    <glyph glyph-name="less" unicode="&#x3c;" horiz-adv-x="439" 
d="M30 383l274 274l110 -111l-163 -163l163 -164l-110 -110z" />
    <glyph glyph-name="equal" unicode="=" 
d="M458 555v-140h-418v140h418zM458 282v-139h-418v139h418z" />
    <glyph glyph-name="greater" unicode="&#x3e;" horiz-adv-x="466" 
d="M414 383l-274 -274l-110 111l163 163l-163 164l110 110z" />
    <glyph glyph-name="question" unicode="?" horiz-adv-x="518" 
d="M472 619v0c11 -25 17 -53 17 -83c0 -76 -72 -126 -123 -163c-15 -11 -28 -20 -37 -28c-5 -6 -11 -16 -14 -33c-4 -21 -5 -50 -5 -86v-9h-156v9c0 66 1 104 11 134c9 31 27 51 61 69c19 9 47 25 69 43c27 22 40 43 40 64c0 65 -53 73 -76 73c-65 0 -83 -47 -83 -73v-8
h-145v8c0 25 4 50 14 73c9 25 24 47 42 65c41 43 101 66 172 66c34 0 65 -5 93 -14c27 -11 53 -25 73 -42c20 -18 36 -41 47 -65zM296 127c19 -17 30 -39 30 -64c0 -24 -11 -46 -30 -63c-18 -17 -43 -25 -69 -25c-27 0 -52 8 -70 25c-19 17 -29 39 -29 63c0 25 10 47 29 64
c18 16 43 25 70 25c26 0 51 -9 69 -25z" />
    <glyph glyph-name="at" unicode="@" horiz-adv-x="802" 
d="M664 609c68 -70 107 -162 107 -260c0 -150 -92 -271 -169 -271c-28 1 -52 7 -70 20c-28 20 -47 53 -50 88l-1 11c-23 -15 -56 -30 -87 -34c-7 -1 -13 -1 -21 -1c-95 0 -174 71 -185 167c-11 103 62 194 165 205c7 1 14 1 21 1c35 0 69 -9 99 -27v20h100v-328
c0 -18 13 -30 29 -30c17 0 28 16 45 36c6 10 11 20 15 29c2 4 2 7 3 11l1 1c0 1 1 2 1 3c1 2 2 5 3 9l1 2s0 1 1 2c1 3 1 6 3 9v2c1 1 1 1 1 2c0 4 1 7 2 10l1 2v2c1 3 1 6 1 9v0l1 2v4s1 4 1 7v2l1 2v3c1 2 1 4 1 7v2v2v4v6v3v2v4c0 80 -34 157 -93 211
c-52 49 -121 74 -192 74c-85 0 -166 -37 -221 -103c-42 -51 -65 -116 -65 -182v-14l1 -1v-1v-13v-2c1 -3 2 -8 2 -12l1 -1v-2c0 -4 1 -8 1 -11l1 -2c0 -4 1 -7 2 -11l1 -1v-1c0 -4 2 -8 3 -11l1 -3c1 -4 2 -8 4 -11l1 -2c1 -4 3 -8 3 -12l1 -1l1 -1c1 -3 3 -6 4 -10l1 -1v-1
c30 -61 81 -111 144 -138c4 -2 7 -2 11 -4l1 -1h3c2 -1 5 -3 9 -4h2c0 -1 1 -1 2 -1l9 -3l2 -1h2c4 -1 7 -2 9 -3h1h2c1 0 1 0 2 -1c3 0 6 0 9 -1h1h2h2c3 -1 6 -1 8 -2h3h1c1 -1 2 -1 3 -1h8h2h3l2 -1h12h1h2h14h1v1h13h3c3 1 7 2 12 2v1h2c4 0 8 1 12 1v0h1c5 1 8 2 12 3
l1 1v0h1h2l5 1l3 -4l51 -55l9 -10l-11 -3c-43 -16 -86 -24 -131 -24c-205 0 -372 167 -372 372c0 72 21 143 60 202c70 106 186 170 312 170c98 0 190 -39 260 -107h2c0 -1 1 -2 1 -2l2 -2v-1zM373 264h9c23 2 44 14 58 31c15 18 22 40 19 63c-5 43 -42 76 -85 76h-9
c-48 -5 -82 -48 -77 -94c6 -44 42 -76 85 -76z" />
    <glyph glyph-name="backslash" unicode="\" horiz-adv-x="394" 
d="M69 707h140l150 -707h-142z" />
    <glyph glyph-name="bracketleft" unicode="[" horiz-adv-x="293" 
d="M256 0h-216v707h216v-101h-85v-502h85v-104z" />
    <glyph glyph-name="bracketright" unicode="]" horiz-adv-x="303" 
d="M51 707h216v-708h-216v105h85v502h-85v101z" />
    <glyph glyph-name="asciicircum" unicode="^" horiz-adv-x="392" 
d="M189 888l156 -156l-64 -63l-92 93l-93 -93l-63 63z" />
    <glyph glyph-name="underscore" unicode="_" horiz-adv-x="547" 
d="M40 115h478v-115h-478v115z" />
    <glyph glyph-name="grave" unicode="`" horiz-adv-x="264" 
d="M25 660l68 55l138 -167l-68 -55z" />
    <glyph glyph-name="asciitilde" unicode="~" horiz-adv-x="490" 
d="M500 811c-7 -6 -76 -58 -153 -58c-60 0 -138 55 -186 55c-32 0 -73 -27 -81 -34l-72 92c7 6 77 57 153 57c60 0 139 -53 186 -53c32 0 73 26 82 34z" />
    <glyph glyph-name="quotedblleft" unicode="&#x201c;" horiz-adv-x="382" 
d="M65 703h108v-270h-108v270zM224 703h109v-270h-109v270z" />
    <glyph glyph-name="quotedblright" unicode="&#x201d;" horiz-adv-x="389" 
d="M65 703h108v-270h-108v270zM224 703h109v-270h-109v270z" />
    <glyph glyph-name="questiondown" unicode="&#xbf;" 
d="M48 95c-11 25 -17 53 -17 83c0 76 72 126 123 163c15 11 28 20 37 28c5 6 11 16 14 33c4 21 5 50 5 86v9h156v-9c0 -66 -1 -104 -11 -134c-9 -31 -27 -51 -61 -69c-19 -9 -47 -25 -69 -43c-27 -22 -40 -43 -40 -64c0 -65 53 -73 76 -73c65 0 83 47 83 73v8h145v-8
c0 -25 -4 -50 -14 -73c-9 -25 -24 -47 -42 -65c-41 -43 -101 -66 -172 -66c-34 0 -65 5 -93 14c-27 11 -53 25 -73 42c-20 18 -36 41 -47 65zM224 587c-19 17 -30 39 -30 64c0 24 11 46 30 63c18 17 43 25 69 25c27 0 52 -8 70 -25c19 -17 29 -39 29 -63
c0 -25 -10 -47 -29 -64c-18 -16 -43 -25 -70 -25c-26 0 -51 9 -69 25z" />
    <glyph glyph-name="guillemotright" unicode="&#xbb;" horiz-adv-x="826" 
d="M414 383l-274 -274l-110 111l163 163l-163 164l110 110zM780 383l-274 -274l-110 111l163 163l-163 164l110 110z" />
    <glyph glyph-name="guilsinglright" unicode="&#x203a;" horiz-adv-x="481" 
d="M414 383l-274 -274l-110 111l163 163l-163 164l110 110z" />
    <glyph glyph-name="periodcentered" unicode="&#xb7;" horiz-adv-x="345" 
d="M254 179c25 -23 39 -53 39 -85s-14 -62 -39 -84s-58 -35 -93 -35s-68 13 -93 35c-26 22 -40 52 -40 84s14 62 40 85c25 22 58 34 93 34s68 -12 93 -34z" />
    <glyph glyph-name="Agrave" unicode="&#xc0;" horiz-adv-x="892" 
d="M640 0l-44 89h-314l-44 -89h-175l322 647h109l322 -647h-176zM349 217h185l-95 205zM233 874h281l56 -116h-280z" />
    <glyph glyph-name="guillemotleft" unicode="&#xab;" horiz-adv-x="814" 
d="M396 383l274 274l110 -111l-163 -163l163 -164l-110 -110zM30 383l274 274l110 -111l-163 -163l163 -164l-110 -110z" />
    <glyph glyph-name="guilsinglleft" unicode="&#x2039;" horiz-adv-x="471" 
d="M30 383l274 274l110 -111l-163 -163l163 -164l-110 -110z" />
    <glyph glyph-name="circumflex" unicode="&#x2c6;" horiz-adv-x="411" 
d="M189 888l156 -156l-64 -63l-92 93l-93 -93l-63 63z" />
    <glyph glyph-name="quotesinglbase" unicode="&#x201a;" horiz-adv-x="257" 
d="M65 116h108v-270h-108v270z" />
    <glyph glyph-name="quotedblbase" unicode="&#x201e;" horiz-adv-x="397" 
d="M65 116h108v-270h-108v270zM232 116h108v-270h-108v270z" />
    <glyph glyph-name="Aacute" unicode="&#xc1;" horiz-adv-x="845" 
d="M626 0l-44 89h-314l-44 -89h-175l322 647h109l322 -647h-176zM335 217h185l-95 205zM556 760h-280l56 116h281z" />
    <glyph glyph-name="Acircumflex" unicode="&#xc2;" horiz-adv-x="852" 
d="M631 0l-44 89h-315l-44 -89h-176l323 650h118l311 -650h-173zM337 216h189l-97 209zM611 792l-51 -74l-132 90l-131 -90l-51 74l182 125v0v0v0v0z" />
    <glyph glyph-name="Atilde" unicode="&#xc3;" horiz-adv-x="855" 
d="M642 0l-44 89h-314l-44 -89h-175l322 647h109l322 -647h-176zM350 215h187l-96 208zM676 810c-6 -6 -74 -57 -149 -57c-59 0 -135 54 -182 54c-31 0 -71 -27 -79 -33l-70 89c7 6 75 56 149 56c59 0 136 -52 182 -52c31 0 71 26 80 33z" />
    <glyph glyph-name="Adieresis" unicode="&#xc4;" horiz-adv-x="862" 
d="M631 0l-44 89h-315l-44 -89h-176l323 650h118l311 -650h-173zM337 216h189l-97 209zM321 861c37 0 67 -30 67 -67s-30 -67 -67 -67s-66 30 -66 67s29 67 66 67zM534 861c37 0 67 -30 67 -67s-30 -67 -67 -67s-67 30 -67 67s30 67 67 67z" />
    <glyph glyph-name="Ccedilla" unicode="&#xc7;" horiz-adv-x="705" 
d="M544 198l118 -76c-62 -84 -162 -138 -274 -138c-188 0 -341 152 -341 340s153 341 341 341c112 0 212 -55 274 -139l-118 -76c-43 40 -91 66 -156 66c-106 0 -192 -86 -192 -192c0 -105 86 -191 192 -191c65 0 105 21 156 65zM542 -226v115h-321v-115h321z" />
    <glyph glyph-name="Egrave" unicode="&#xc8;" horiz-adv-x="611" 
d="M558 510h-333v-116h263v-139h-263v-116h333v-139h-489v0v650v0h489v-140zM175 758l-57 116h281l56 -116h-280z" />
    <glyph glyph-name="Eacute" unicode="&#xc9;" horiz-adv-x="600" 
d="M558 510h-333v-116h263v-139h-263v-116h333v-139h-489v0v650v0h489v-140zM495 876l-57 -116h-280l56 116h281z" />
    <glyph glyph-name="Ecircumflex" unicode="&#xca;" horiz-adv-x="597" 
d="M558 510h-333v-116h263v-139h-263v-116h333v-139h-489v0v650v0h489v-140zM507 792l-51 -74l-132 90l-131 -90l-51 74l182 125v0v0v0v0z" />
    <glyph glyph-name="Edieresis" unicode="&#xcb;" horiz-adv-x="599" 
d="M558 510h-333v-116h263v-139h-263v-116h333v-139h-489v0v650v0h489v-140zM209 861c37 0 67 -30 67 -67s-30 -67 -67 -67s-66 30 -66 67s29 67 66 67zM422 861c37 0 67 -30 67 -67s-30 -67 -67 -67s-67 30 -67 67s30 67 67 67z" />
    <glyph glyph-name="Igrave" unicode="&#xcc;" horiz-adv-x="275" 
d="M65 650v-650h156v650h-156zM172 812l50 -101h-157l-49 101h156z" />
    <glyph glyph-name="Iacute" unicode="&#xcd;" horiz-adv-x="294" 
d="M65 0v650h156v-650h-156zM270 812l-50 -101h-156l49 101h157z" />
    <glyph glyph-name="tilde" unicode="&#x2dc;" 
d="M450 734c-6 -5 -66 -50 -131 -50c-52 0 -118 47 -160 47c-27 0 -62 -23 -69 -29l-62 79c6 5 66 49 131 49c52 0 119 -46 160 -46c27 0 62 23 70 29z" />
    <glyph glyph-name="quoteleft" unicode="&#x2018;" horiz-adv-x="219" 
d="M65 703h108v-270h-108v270z" />
    <glyph glyph-name="quoteright" unicode="&#x2019;" horiz-adv-x="227" 
d="M65 703h108v-270h-108v270z" />
    <glyph glyph-name="Icircumflex" unicode="&#xce;" horiz-adv-x="300" 
d="M65 650v-650h156v650h-156zM142 925l156 -156l-64 -63l-92 93l-93 -93l-63 63z" />
    <glyph glyph-name="Idieresis" unicode="&#xcf;" horiz-adv-x="300" 
d="M65 0v650h156v-650h-156zM31 861c37 0 67 -30 67 -67s-30 -67 -67 -67s-66 30 -66 67s29 67 66 67zM244 861c37 0 67 -30 67 -67s-30 -67 -67 -67s-67 30 -67 67s30 67 67 67z" />
    <glyph glyph-name="acute" unicode="&#xb4;" horiz-adv-x="305" 
d="M187 924l68 -55l-138 -167l-68 55z" />
    <glyph glyph-name="bar" unicode="|" horiz-adv-x="293" 
d="M69 -59v835h133v-835h-133z" />
    <glyph glyph-name="Ntilde" unicode="&#xd1;" horiz-adv-x="825" 
d="M613 650h156v-650h-156l-324 389v-389h-156v650h156v0v0l324 -405v405zM667 812c-6 -5 -66 -50 -131 -50c-52 0 -118 47 -160 47c-27 0 -62 -23 -69 -29l-62 79c6 5 66 49 131 49c52 0 119 -46 160 -46c27 0 62 23 70 29z" />
    <glyph glyph-name="Ograve" unicode="&#xd2;" horiz-adv-x="795" 
d="M421 667c189 0 342 -154 342 -343s-153 -342 -342 -342c-190 0 -343 153 -343 342s153 343 343 343zM421 132c106 0 192 86 192 192s-86 193 -192 193c-107 0 -193 -87 -193 -193s86 -192 193 -192zM293 758l-57 116h281l56 -116h-280z" />
    <glyph glyph-name="Oacute" unicode="&#xd3;" horiz-adv-x="806" 
d="M421 667c189 0 342 -154 342 -343s-153 -342 -342 -342c-190 0 -343 153 -343 342s153 343 343 343zM421 132c106 0 192 86 192 192s-86 193 -192 193c-107 0 -193 -87 -193 -193s86 -192 193 -192zM609 876l-57 -116h-280l56 116h281z" />
    <glyph glyph-name="Ocircumflex" unicode="&#xd4;" horiz-adv-x="798" 
d="M421 667c189 0 342 -154 342 -343s-153 -342 -342 -342c-190 0 -343 153 -343 342s153 343 343 343zM421 132c106 0 192 86 192 192s-86 193 -192 193c-107 0 -193 -87 -193 -193s86 -192 193 -192zM611 792l-51 -74l-132 90l-131 -90l-51 74l182 125v0v0v0v0z" />
    <glyph glyph-name="Otilde" unicode="&#xd5;" horiz-adv-x="806" 
d="M421 667c189 0 342 -154 342 -343s-153 -342 -342 -342c-190 0 -343 153 -343 342s153 343 343 343zM421 132c106 0 192 86 192 192s-86 193 -192 193c-107 0 -193 -87 -193 -193s86 -192 193 -192zM679 811c-7 -6 -76 -58 -153 -58c-60 0 -138 55 -186 55
c-32 0 -73 -27 -81 -34l-72 92c7 6 77 57 153 57c60 0 139 -53 186 -53c32 0 73 26 82 34z" />
    <glyph glyph-name="Odieresis" unicode="&#xd6;" horiz-adv-x="807" 
d="M421 667c189 0 342 -154 342 -343s-153 -342 -342 -342c-190 0 -343 153 -343 342s153 343 343 343zM421 132c106 0 192 86 192 192s-86 193 -192 193c-107 0 -193 -87 -193 -193s86 -192 193 -192zM321 861c37 0 67 -30 67 -67s-30 -67 -67 -67s-66 30 -66 67
s29 67 66 67zM534 861c37 0 67 -30 67 -67s-30 -67 -67 -67s-67 30 -67 67s30 67 67 67z" />
    <glyph glyph-name="multiply" unicode="&#xd7;" horiz-adv-x="653" 
d="M608 510l-180 -183l180 -181l-97 -97l-179 180l-181 -179l-97 96l182 182l-182 179l97 98l181 -180l179 181z" />
    <glyph glyph-name="agrave" unicode="&#xe0;" horiz-adv-x="717" 
d="M507 513h154v-513h-154v41c-19 -15 -40 -27 -63 -37c-34 -14 -70 -21 -107 -21s-73 7 -107 21c-32 14 -62 34 -87 59s-45 55 -59 87c-14 34 -22 70 -22 107s8 73 22 107c14 33 34 62 59 88c25 25 55 45 87 59c34 14 70 21 107 21s73 -7 107 -21c23 -10 44 -22 63 -37v39z
M464 258c0 70 -56 127 -126 127s-127 -57 -127 -127s57 -127 127 -127s126 57 126 127zM465 750l57 -117h-280l-56 117h279z" />
    <glyph glyph-name="aacute" unicode="&#xe1;" horiz-adv-x="711" 
d="M507 513h154v-513h-154v41c-19 -15 -40 -27 -63 -37c-34 -14 -70 -21 -107 -21s-73 7 -107 21c-32 14 -62 34 -87 59s-45 55 -59 87c-14 34 -22 70 -22 107s8 73 22 107c14 33 34 62 59 88c25 25 55 45 87 59c34 14 70 21 107 21s73 -7 107 -21c23 -10 44 -22 63 -37v39z
M464 258c0 70 -56 127 -126 127s-127 -57 -127 -127s57 -127 127 -127s126 57 126 127zM578 749l-57 -116h-280l56 116h281z" />
    <glyph glyph-name="acircumflex" unicode="&#xe2;" horiz-adv-x="719" 
d="M507 513h154v-513h-154v41c-19 -15 -40 -27 -63 -37c-34 -14 -70 -21 -107 -21s-73 7 -107 21c-32 14 -62 34 -87 59s-45 55 -59 87c-14 34 -22 70 -22 107s8 73 22 107c14 33 34 62 59 88c25 25 55 45 87 59c34 14 70 21 107 21s73 -7 107 -21c23 -10 44 -22 63 -37v39z
M464 258c0 70 -56 127 -126 127s-127 -57 -127 -127s57 -127 127 -127s126 57 126 127zM564 749l-51 -74l-132 90l-131 -90l-51 74l182 125v0v0v0v0z" />
    <glyph glyph-name="atilde" unicode="&#xe3;" horiz-adv-x="700" 
d="M507 513h154v-513h-154v41c-19 -15 -40 -27 -63 -37c-34 -14 -70 -21 -107 -21s-73 7 -107 21c-32 14 -62 34 -87 59s-45 55 -59 87c-14 34 -22 70 -22 107s8 73 22 107c14 33 34 62 59 88c25 25 55 45 87 59c34 14 70 21 107 21s73 -7 107 -21c23 -10 44 -22 63 -37v39z
M464 258c0 70 -56 127 -126 127s-127 -57 -127 -127s57 -127 127 -127s126 57 126 127zM608 702c-6 -5 -66 -50 -131 -50c-52 0 -118 47 -160 47c-27 0 -62 -23 -69 -29l-62 79c6 5 66 49 131 49c52 0 119 -46 160 -46c27 0 62 23 70 29z" />
    <glyph glyph-name="adieresis" unicode="&#xe4;" horiz-adv-x="708" 
d="M507 513h154v-513h-154v41c-19 -15 -40 -27 -63 -37c-34 -14 -70 -21 -107 -21s-73 7 -107 21c-32 14 -62 34 -87 59s-45 55 -59 87c-14 34 -22 70 -22 107s8 73 22 107c14 33 34 62 59 88c25 25 55 45 87 59c34 14 70 21 107 21s73 -7 107 -21c23 -10 44 -22 63 -37v39z
M464 258c0 70 -56 127 -126 127s-127 -57 -127 -127s57 -127 127 -127s126 57 126 127zM271 745c37 0 67 -30 67 -67s-30 -67 -67 -67s-66 30 -66 67s29 67 66 67zM484 745c37 0 67 -30 67 -67s-30 -67 -67 -67s-67 30 -67 67s30 67 67 67z" />
    <glyph glyph-name="ccedilla" unicode="&#xe7;" horiz-adv-x="602" 
d="M423 182l116 -97c-6 -8 -12 -15 -19 -22c-25 -25 -55 -45 -88 -59c-34 -14 -70 -22 -107 -22s-73 8 -107 22c-32 14 -62 34 -87 59s-45 55 -59 87c-14 34 -22 70 -22 107s8 73 22 107c14 33 34 63 59 88s55 45 87 59c34 14 70 21 107 21s73 -7 107 -21
c33 -14 63 -34 88 -59c8 -8 15 -16 22 -25l-117 -97c-27 30 -61 54 -104 54c-70 0 -127 -57 -127 -127s57 -127 127 -127c42 0 74 22 102 52zM436 -212v110h-266v-110h266z" />
    <glyph glyph-name="egrave" unicode="&#xe8;" horiz-adv-x="673" 
d="M488 185l113 -69c-4 -4 -7 -9 -10 -13c-47 -57 -112 -93 -185 -101c-10 -1 -20 -2 -30 -2c-141 0 -258 106 -273 245c-17 151 93 287 244 303c9 2 20 2 29 2c141 0 238 -105 254 -245c3 -29 1 -57 -4 -84h-383c21 -53 73 -90 133 -90c5 0 11 0 16 1c38 4 72 23 96 53z
M376 419c-72 0 -133 -47 -133 -99h255c0 55 -62 99 -122 99zM419 712l50 -101h-214l-49 101h213z" />
    <glyph glyph-name="eacute" unicode="&#xe9;" horiz-adv-x="600" 
d="M427 185l113 -69c-4 -4 -7 -9 -10 -13c-47 -57 -112 -93 -185 -101c-10 -1 -20 -2 -30 -2c-141 0 -258 106 -273 245c-17 151 93 287 244 303c9 2 20 2 29 2c141 0 238 -105 254 -245c3 -29 1 -57 -4 -84h-383c21 -53 73 -90 133 -90c5 0 11 0 16 1c38 4 72 23 96 53z
M315 419c-72 0 -133 -47 -133 -99h255c0 55 -62 99 -122 99zM512 763l-57 -116h-280l56 116h281z" />
    <glyph glyph-name="ecircumflex" unicode="&#xea;" horiz-adv-x="614" 
d="M446 185l113 -69c-4 -4 -7 -9 -10 -13c-47 -57 -112 -93 -185 -101c-10 -1 -20 -2 -30 -2c-141 0 -258 106 -273 245c-17 151 93 287 244 303c9 2 20 2 29 2c141 0 238 -105 254 -245c3 -29 1 -57 -4 -84h-383c21 -53 73 -90 133 -90c5 0 11 0 16 1c38 4 72 23 96 53z
M334 419c-72 0 -133 -47 -133 -99h255c0 55 -62 99 -122 99zM518 660l-51 -74l-132 90l-131 -90l-51 74l182 125v0v0v0v0z" />
    <glyph glyph-name="edieresis" unicode="&#xeb;" horiz-adv-x="642" 
d="M446 185l113 -69c-4 -4 -7 -9 -10 -13c-47 -57 -112 -93 -185 -101c-10 -1 -20 -2 -30 -2c-141 0 -258 106 -273 245c-17 151 93 287 244 303c9 2 20 2 29 2c141 0 238 -105 254 -245c3 -29 1 -57 -4 -84h-383c21 -53 73 -90 133 -90c5 0 11 0 16 1c38 4 72 23 96 53z
M334 419c-72 0 -133 -47 -133 -99h255c0 55 -62 99 -122 99zM223 745c37 0 67 -30 67 -67s-30 -67 -67 -67s-66 30 -66 67s29 67 66 67zM436 745c37 0 67 -30 67 -67s-30 -67 -67 -67s-67 30 -67 67s30 67 67 67z" />
    <glyph glyph-name="igrave" unicode="&#xec;" horiz-adv-x="290" 
d="M81 0v515h156v-515h-156zM183 706l57 -116h-157l-56 116h156z" />
    <glyph glyph-name="iacute" unicode="&#xed;" horiz-adv-x="295" 
d="M81 0v515h156v-515h-156zM284 708l-50 -101h-156l49 101h157z" />
    <glyph glyph-name="icircumflex" unicode="&#xee;" horiz-adv-x="322" 
d="M81 0v513h156v-513h-156zM341 660l-51 -74l-132 90l-131 -90l-51 74l182 125v0v0v0v0z" />
    <glyph glyph-name="idieresis" unicode="&#xef;" horiz-adv-x="313" 
d="M81 0v513h156v-513h-156zM54 721c37 0 67 -30 67 -67s-30 -67 -67 -67s-66 30 -66 67s29 67 66 67zM267 721c37 0 67 -30 67 -67s-30 -67 -67 -67s-67 30 -67 67s30 67 67 67z" />
    <glyph glyph-name="ograve" unicode="&#xf2;" horiz-adv-x="658" 
d="M598 362c14 -34 21 -70 22 -107c0 -37 -8 -73 -22 -107c-14 -33 -34 -62 -59 -87c-25 -26 -54 -45 -87 -59c-34 -15 -70 -22 -107 -22s-73 7 -107 21c-33 14 -62 34 -88 59c-25 25 -45 55 -59 87c-14 34 -21 70 -21 107c-1 37 7 73 21 107c14 33 34 63 59 88s54 45 87 59
c34 14 70 22 107 22s73 -7 107 -22c33 -13 62 -33 88 -58c25 -26 45 -55 59 -88zM345 116c76 0 138 63 138 139c0 77 -62 138 -139 138c-76 0 -138 -62 -138 -138c0 -77 62 -139 139 -139zM406 712l50 -101h-214l-49 101h213z" />
    <glyph glyph-name="oacute" unicode="&#xf3;" horiz-adv-x="679" 
d="M598 362c14 -34 21 -70 22 -107c0 -37 -8 -73 -22 -107c-14 -33 -34 -62 -59 -87c-25 -26 -54 -45 -87 -59c-34 -15 -70 -22 -107 -22s-73 7 -107 21c-33 14 -62 34 -88 59c-25 25 -45 55 -59 87c-14 34 -21 70 -21 107c-1 37 7 73 21 107c14 33 34 63 59 88s54 45 87 59
c34 14 70 22 107 22s73 -7 107 -22c33 -13 62 -33 88 -58c25 -26 45 -55 59 -88zM345 116c76 0 138 63 138 139c0 77 -62 138 -139 138c-76 0 -138 -62 -138 -138c0 -77 62 -139 139 -139zM541 749l-57 -116h-280l56 116h281z" />
    <glyph glyph-name="ocircumflex" unicode="&#xf4;" horiz-adv-x="671" 
d="M598 362c14 -34 21 -70 22 -107c0 -37 -8 -73 -22 -107c-14 -33 -34 -62 -59 -87c-25 -26 -54 -45 -87 -59c-34 -15 -70 -22 -107 -22s-73 7 -107 21c-33 14 -62 34 -88 59c-25 25 -45 55 -59 87c-14 34 -21 70 -21 107c-1 37 7 73 21 107c14 33 34 63 59 88s54 45 87 59
c34 14 70 22 107 22s73 -7 107 -22c33 -13 62 -33 88 -58c25 -26 45 -55 59 -88zM345 116c76 0 138 63 138 139c0 77 -62 138 -139 138c-76 0 -138 -62 -138 -138c0 -77 62 -139 139 -139zM528 654l-51 -74l-132 90l-131 -90l-51 74l182 125v0v0v0v0z" />
    <glyph glyph-name="otilde" unicode="&#xf5;" horiz-adv-x="659" 
d="M598 362c14 -34 21 -70 22 -107c0 -37 -8 -73 -22 -107c-14 -33 -34 -62 -59 -87c-25 -26 -54 -45 -87 -59c-34 -15 -70 -22 -107 -22s-73 7 -107 21c-33 14 -62 34 -88 59c-25 25 -45 55 -59 87c-14 34 -21 70 -21 107c-1 37 7 73 21 107c14 33 34 63 59 88s54 45 87 59
c34 14 70 22 107 22s73 -7 107 -22c33 -13 62 -33 88 -58c25 -26 45 -55 59 -88zM345 116c76 0 138 63 138 139c0 77 -62 138 -139 138c-76 0 -138 -62 -138 -138c0 -77 62 -139 139 -139zM556 702c-6 -5 -66 -50 -131 -50c-52 0 -118 47 -160 47c-27 0 -62 -23 -69 -29
l-62 79c6 5 66 49 131 49c52 0 119 -46 160 -46c27 0 62 23 70 29z" />
    <glyph glyph-name="odieresis" unicode="&#xf6;" horiz-adv-x="649" 
d="M598 362c14 -34 21 -70 22 -107c0 -37 -8 -73 -22 -107c-14 -33 -34 -62 -59 -87c-25 -26 -54 -45 -87 -59c-34 -15 -70 -22 -107 -22s-73 7 -107 21c-33 14 -62 34 -88 59c-25 25 -45 55 -59 87c-14 34 -21 70 -21 107c-1 37 7 73 21 107c14 33 34 63 59 88s54 45 87 59
c34 14 70 22 107 22s73 -7 107 -22c33 -13 62 -33 88 -58c25 -26 45 -55 59 -88zM345 116c76 0 138 63 138 139c0 77 -62 138 -139 138c-76 0 -138 -62 -138 -138c0 -77 62 -139 139 -139zM245 745c37 0 67 -30 67 -67s-30 -67 -67 -67s-66 30 -66 67s29 67 66 67zM458 745
c37 0 67 -30 67 -67s-30 -67 -67 -67s-67 30 -67 67s30 67 67 67z" />
    <glyph glyph-name="ntilde" unicode="&#xf1;" horiz-adv-x="656" 
d="M356 532c211 0 256 -156 256 -277v-255h-155v255c0 82 -28 125 -120 125c-66 0 -116 -54 -117 -122v-258h-157v515h155v-41c1 1 54 58 138 58zM538 702c-6 -5 -66 -50 -131 -50c-52 0 -118 47 -160 47c-27 0 -62 -23 -69 -29l-62 79c6 5 66 49 131 49
c52 0 119 -46 160 -46c27 0 62 23 70 29z" />
    <glyph glyph-name="divide" unicode="&#xf7;" horiz-adv-x="547" 
d="M375 617c0 -59 -48 -107 -107 -107s-107 48 -107 107s48 106 107 106s107 -47 107 -106zM374 131c0 -59 -48 -107 -107 -107s-107 48 -107 107s48 106 107 106s107 -47 107 -106zM496 445v-139h-456v139h456z" />
    <glyph glyph-name="ugrave" unicode="&#xf9;" horiz-adv-x="671" 
d="M341 -17c-211 0 -256 156 -256 277v254h155v-254c0 -82 28 -125 119 -125c66 0 116 53 117 121c0 0 2 159 2 258h155v-514h-155v41c-1 -1 -54 -58 -137 -58zM415 712l50 -101h-214l-49 101h213z" />
    <glyph glyph-name="uacute" unicode="&#xfa;" horiz-adv-x="658" 
d="M341 -17c-211 0 -256 156 -256 277v254h155v-254c0 -82 28 -125 119 -125c66 0 116 53 117 121c0 0 2 159 2 258h155v-514h-155v41c-1 -1 -54 -58 -137 -58zM538 749l-57 -116h-280l56 116h281z" />
    <glyph glyph-name="ucircumflex" unicode="&#xfb;" horiz-adv-x="665" 
d="M341 -17c-211 0 -256 156 -256 277v254h155v-254c0 -82 28 -125 119 -125c66 0 116 53 117 121c0 0 2 159 2 258h155v-514h-155v41c-1 -1 -54 -58 -137 -58zM532 660l-51 -74l-132 90l-131 -90l-51 74l182 125v0v0v0v0z" />
    <glyph glyph-name="udieresis" unicode="&#xfc;" horiz-adv-x="666" 
d="M341 -17c-211 0 -256 156 -256 277v254h155v-254c0 -82 28 -125 119 -125c66 0 116 53 117 121c0 0 2 159 2 258h155v-514h-155v41c-1 -1 -54 -58 -137 -58zM257 745c37 0 67 -30 67 -67s-30 -67 -67 -67s-66 30 -66 67s29 67 66 67zM470 745c37 0 67 -30 67 -67
s-30 -67 -67 -67s-67 30 -67 67s30 67 67 67z" />
    <glyph glyph-name="yacute" unicode="&#xfd;" horiz-adv-x="531" 
d="M393 513h162s-151 -382 -204 -509c-110 -261 -222 -300 -291 -300v169c55 0 120 58 120 131l-198 509h152l131 -304zM447 749l-57 -116h-280l56 116h281z" />
    <glyph glyph-name="ydieresis" unicode="&#xff;" horiz-adv-x="528" 
d="M393 513h162s-151 -382 -204 -509c-110 -261 -222 -300 -291 -300v169c55 0 120 58 120 131l-198 509h152l131 -304zM153 745c37 0 67 -30 67 -67s-30 -67 -67 -67s-66 30 -66 67s29 67 66 67zM366 745c37 0 67 -30 67 -67s-30 -67 -67 -67s-67 30 -67 67s30 67 67 67z
" />
    <glyph glyph-name="Ugrave" unicode="&#xd9;" horiz-adv-x="744" 
d="M544 650h159v-319c0 -209 -146 -348 -330 -348c-185 0 -331 139 -331 348v319h159v-319c0 -102 72 -187 172 -187c99 0 171 85 171 187v319zM235 758l-57 116h281l56 -116h-280z" />
    <glyph glyph-name="Uacute" unicode="&#xda;" horiz-adv-x="754" 
d="M544 650h159v-319c0 -209 -146 -348 -330 -348c-185 0 -331 139 -331 348v319h159v-319c0 -102 72 -187 172 -187c99 0 171 85 171 187v319zM550 876l-57 -116h-280l56 116h281z" />
    <glyph glyph-name="Ucircumflex" unicode="&#xdb;" horiz-adv-x="749" 
d="M544 650h159v-319c0 -209 -146 -348 -330 -348c-185 0 -331 139 -331 348v319h159v-319c0 -102 72 -187 172 -187c99 0 171 85 171 187v319zM566 792l-51 -74l-141 78l-122 -78l-51 74l182 125v0v0v0v0z" />
    <glyph glyph-name="Udieresis" unicode="&#xdc;" horiz-adv-x="744" 
d="M544 650h159v-319c0 -209 -146 -348 -330 -348c-185 0 -331 139 -331 348v319h159v-319c0 -102 72 -187 172 -187c99 0 171 85 171 187v319zM255 861c37 0 67 -30 67 -67s-30 -67 -67 -67s-66 30 -66 67s29 67 66 67zM468 861c37 0 67 -30 67 -67s-30 -67 -67 -67
s-67 30 -67 67s30 67 67 67z" />
    <glyph glyph-name="Yacute" unicode="&#xdd;" horiz-adv-x="670" 
d="M517 650h194l-273 -376v-274h-194v274l-274 376h194l177 -236zM529 876l-57 -116h-280l56 116h281z" />
    <glyph glyph-name="twosuperior" unicode="&#xb2;" horiz-adv-x="405" 
d="M229 464c-26 -13 -48 -20 -59 -32h169v-73h-252v69c0 51 73 75 113 97c44 23 70 39 70 63c0 12 -2 57 -57 57c-38 0 -58 -19 -58 -57h-68c0 63 39 126 126 126c83 0 126 -63 126 -126c0 -66 -63 -98 -110 -124z" />
    <glyph glyph-name="threesuperior" unicode="&#xb3;" horiz-adv-x="344" 
d="M206 570c64 0 105 -49 105 -118c0 -63 -58 -112 -130 -112v0v0c-71 0 -129 49 -129 112h71c0 -29 26 -46 58 -46c33 0 59 17 59 46c0 53 -29 61 -59 61h-73v57l92 71h-140v62h238v-62z" />
    <glyph glyph-name="onesuperior" unicode="&#xb9;" horiz-adv-x="257" 
d="M132 707h82v-345h-82v225h-79v55s74 7 79 65z" />
    <glyph glyph-name="onequarter" unicode="&#xbc;" horiz-adv-x="614" 
d="M118 702h67v-282h-67v184h-65v45s61 6 65 53zM536 176v-51h-42v-74h-67v74h-140v51h1v0l138 157h1v0h67v-157h42zM363 176h64v78zM305 552h67l-139 -336h-68z" />
    <glyph glyph-name="onehalf" unicode="&#xbd;" 
d="M118 702h67v-282h-67v184h-65v45s61 6 65 53zM305 552h67l-139 -336h-68zM451 215c-22 -11 -40 -16 -49 -26h140v-61h-209v57c0 42 60 62 94 81c36 19 57 32 57 52c0 10 -1 47 -47 47c-31 0 -48 -16 -48 -47h-56c0 52 32 104 104 104c69 0 105 -52 105 -104
c0 -55 -53 -81 -91 -103z" />
    <glyph glyph-name="minus" unicode="&#x2212;" 
d="M410 373v-140h-370v140h370z" />
    <glyph glyph-name="threequarters" unicode="&#xbe;" 
d="M173 598c51 0 83 -39 83 -93c0 -50 -46 -88 -102 -88v0v0c-56 0 -102 38 -102 88h56c0 -23 20 -36 46 -36s46 13 46 36c0 42 -23 48 -46 48h-58v45l73 56h-111v49h188v-49zM328 552h67l-139 -336h-68zM536 176v-51h-42v-74h-67v74h-140v51h1v0l138 157h1v0h67v-157h42z
M363 176h64v78z" />
    <glyph glyph-name="exclamdown" unicode="&#xa1;" horiz-adv-x="286" 
d="M225 -19h-153v503h153v-503zM78 572c-20 18 -30 41 -30 66c0 24 10 47 30 64c18 17 44 27 72 27c26 0 51 -10 70 -27c21 -17 31 -40 31 -64c0 -25 -10 -48 -31 -66c-19 -16 -44 -25 -70 -25c-28 0 -54 9 -72 25z" />
    <glyph glyph-name="copyright" unicode="&#xa9;" horiz-adv-x="389" 
d="M221 545l31 -26c-14 -19 -40 -30 -63 -30c-42 0 -79 38 -79 79c0 44 34 81 79 81c24 0 47 -13 64 -30l-31 -26c-8 10 -20 17 -34 17c-22 0 -40 -18 -40 -42c0 -22 18 -39 40 -39c13 0 26 6 33 16v0zM189 416c-19 0 -40 4 -58 12c-20 8 -35 19 -50 33
c-13 14 -24 30 -32 49s-12 39 -12 58c0 42 17 79 44 110c15 13 30 24 50 32c18 8 39 12 58 12c21 0 41 -4 60 -12s35 -19 49 -32c14 -15 25 -31 33 -50c8 -18 12 -39 12 -60c0 -19 -4 -39 -12 -58s-19 -35 -33 -49s-30 -25 -49 -33s-39 -12 -60 -12zM189 702
c-72 0 -132 -60 -132 -134c0 -72 60 -132 132 -132c74 0 134 60 134 132c0 74 -60 134 -134 134z" />
    <glyph glyph-name="ordfeminine" unicode="&#xaa;" horiz-adv-x="302" 
d="M208 525h59v-195h-59v15c-7 -6 -15 -10 -24 -14c-13 -5 -26 -8 -40 -8s-28 3 -41 8c-12 5 -24 13 -33 22c-10 10 -17 21 -23 34c-5 13 -8 26 -8 40s3 28 8 41c6 13 13 24 23 34c9 9 21 17 33 22c13 5 27 8 41 8s27 -3 40 -8c9 -4 17 -8 24 -14v15zM192 428
c0 26 -21 48 -48 48s-48 -22 -48 -48c0 -27 21 -49 48 -49s48 22 48 49z" />
    <glyph glyph-name="degree" unicode="&#xb0;" horiz-adv-x="264" 
d="M132 531c51 0 101 -46 101 -101c0 -49 -43 -100 -101 -100c-49 0 -100 43 -100 100c0 48 44 101 100 101zM132 382c27 0 49 23 49 48c0 27 -22 49 -49 49c-25 0 -45 -23 -45 -49c0 -25 20 -48 45 -48z" />
    <glyph glyph-name="trademark" unicode="&#x2122;" horiz-adv-x="572" 
d="M274 650v-49h-88v-182h-55v182h-88v49h231zM486 650h55v-231h-55v118l-54 -118h-24l-53 117v-117h-56v231h56v-1l65 -129l66 130v0z" />
    <glyph glyph-name="cent" unicode="&#xa2;" horiz-adv-x="481" 
d="M316 160c17 8 32 20 45 34l97 -81c-5 -7 -10 -12 -16 -18c-21 -21 -46 -38 -73 -50c-17 -6 -35 -11 -53 -14v-50h-114v60c-4 1 -8 3 -12 4c-27 12 -52 29 -73 50s-38 46 -49 73c-12 28 -19 58 -19 89s7 61 19 89c11 28 28 53 49 74s46 38 73 49c4 2 8 4 12 5v65h114v-54
c18 -3 36 -8 53 -16c27 -11 52 -28 73 -49c7 -7 13 -13 19 -21l-98 -81c-13 15 -29 28 -47 37v-195zM170 257c0 -30 13 -57 32 -76v153c-19 -20 -32 -46 -32 -77z" />
    <glyph glyph-name="oslash" unicode="&#xf8;" horiz-adv-x="633" 
d="M393 514c104 -41 182 -135 185 -259c0 -138 -104 -247 -244 -273l-7 -62h-114l8 72c-107 45 -193 128 -193 262c-4 139 112 262 253 275l6 58h114zM164 255c0 -53 29 -99 73 -122l28 255c-58 -16 -101 -70 -101 -133zM350 124c53 20 91 71 91 131c0 49 -25 92 -64 116z
" />
    <glyph glyph-name="ordmasculine" unicode="&#xba;" horiz-adv-x="253" 
d="M221 470c5 -13 8 -26 8 -39s-3 -26 -8 -38s-12 -23 -21 -32s-20 -16 -31 -21c-13 -5 -26 -8 -39 -8s-26 3 -38 8s-23 12 -32 21s-16 20 -21 31c-5 13 -8 26 -8 39s3 26 8 38s12 23 21 32s20 16 31 21c13 5 26 8 39 8s26 -3 38 -8s23 -12 32 -21s16 -20 21 -31zM130 381
c27 0 50 23 50 50c0 28 -23 50 -50 50s-50 -23 -50 -50s23 -50 50 -50z" />
    <glyph glyph-name="plusminus" unicode="&#xb1;" 
d="M447 471v-90h-140v-139h-89v139h-140v90h140v140h89v-140h140zM413 150v-96h-288v96h288z" />
    <glyph glyph-name="braceleft" unicode="{" 
d="M340 745v-793h-155v274l-78 122l78 122v275h155z" />
    <glyph glyph-name="braceright" unicode="}" horiz-adv-x="415" 
d="M106 -49v793h155v-274l78 -122l-78 -122v-275h-155z" />
    <glyph glyph-name="cedilla" unicode="&#xb8;" 
d="M382 -102v-110h-266v110h266z" />
    <glyph glyph-name="registered" unicode="&#xae;" horiz-adv-x="402" 
d="M189 416c-19 0 -40 4 -58 12c-20 8 -35 19 -50 33c-13 14 -24 30 -32 49s-12 39 -12 58c0 21 4 42 12 60c8 19 19 35 32 50c15 13 30 24 50 32c18 8 39 12 58 12c21 0 41 -4 60 -12s35 -19 49 -32c14 -15 25 -31 33 -50c8 -18 12 -39 12 -60c0 -19 -4 -39 -12 -58
s-19 -35 -33 -49s-30 -25 -49 -33s-39 -12 -60 -12zM189 702c-72 0 -132 -60 -132 -134c0 -72 60 -132 132 -132c74 0 134 60 134 132c0 74 -60 134 -134 134zM264 493h-46l-26 38h-26v-38h-37v152h74c31 0 55 -26 55 -59c0 -23 -11 -39 -27 -48zM166 608v-44h31v0
c13 0 22 9 22 22c0 12 -9 22 -22 22h-31z" />
    <glyph glyph-name="Euro" unicode="&#x20ac;" 
d="M269 91c57 0 92 19 137 58l104 -67c-55 -74 -142 -122 -241 -122c-129 0 -217 127 -251 262h-89v96h75c0 17 0 34 1 52h-76v96h93c36 130 122 249 247 249c99 0 186 -48 241 -123l-104 -66c-45 39 -80 57 -137 57c-55 0 -92 -54 -113 -117h186v-96h-205
c-1 -11 -1 -22 -1 -52h206v-96h-190c20 -69 58 -131 117 -131z" />
    <glyph glyph-name="bullet" unicode="&#x2022;" horiz-adv-x="279" 
d="M209 249c0 -39 -30 -68 -68 -68c-39 0 -68 29 -68 68s29 68 68 68c38 0 68 -29 68 -68z" />
    <glyph glyph-name="i.alt1" horiz-adv-x="264" 
d="M81 0v513h156v-513h-156zM80 572v136h157v-136h-157z" />
    <glyph glyph-name="a.alt1" horiz-adv-x="635" 
d="M313 530c118 0 265 -95 265 -233v-297h-155v32c-133 -66 -346 -105 -376 109c-20 146 137 228 376 160c0 34 -33 82 -113 82c-96 0 -185 -44 -185 -44l-72 120c61 41 187 71 260 71zM201 166c16 -112 215 -41 222 46c-157 40 -233 24 -222 -46z" />
    <glyph glyph-name="j.alt1" horiz-adv-x="428" 
d="M187 513h155v-489c0 -42 -8 -96 -25 -135c-15 -37 -38 -71 -67 -99c-28 -29 -62 -52 -99 -67c-20 -9 -41 -15 -62 -19v161c57 23 98 72 98 159v489zM185 572v136h157v-136h-157z" />
    <glyph glyph-name="Atilde.alt1" horiz-adv-x="855" 
d="M642 0l-44 89h-314l-44 -89h-175l322 647h109l322 -647h-176zM350 215h187l-96 208zM608 858v-115h-321v115h321z" />
    <glyph glyph-name="Ccedilla.alt1" horiz-adv-x="705" 
d="M371 135c65 0 106 22 157 66l119 -76c-52 -71 -130 -120 -220 -135l-177 -177l-98 98l97 97c-129 49 -220 174 -220 320c0 189 153 342 342 342c113 0 213 -55 276 -139l-119 -77c-43 40 -92 66 -157 66c-106 0 -192 -86 -192 -192s86 -193 192 -193z" />
    <glyph glyph-name="ccedilla.alt1" horiz-adv-x="602" 
d="M332 103c53 0 85 17 127 53l95 -62c-41 -56 -104 -96 -177 -108l-142 -143l-79 80l78 78c-104 39 -177 139 -177 257c0 152 123 276 275 276c91 0 172 -44 222 -112l-95 -62c-35 32 -74 53 -127 53c-85 0 -155 -69 -155 -155c0 -85 70 -155 155 -155z" />
    <glyph glyph-name="atilde.alt1" horiz-adv-x="700" 
d="M507 513h154v-513h-154v41c-19 -15 -40 -27 -63 -37c-34 -14 -70 -21 -107 -21s-73 7 -107 21c-32 14 -62 34 -87 59s-45 55 -59 87c-14 34 -22 70 -22 107s8 73 22 107c14 33 34 62 59 88c25 25 55 45 87 59c34 14 70 21 107 21s73 -7 107 -21c23 -10 44 -22 63 -37v39z
M464 258c0 70 -56 127 -126 127s-127 -57 -127 -127s57 -127 127 -127s126 57 126 127zM551 743v-115h-321v115h321z" />
    <glyph glyph-name="Ntilde.alt1" horiz-adv-x="825" 
d="M613 650h156v-650h-156l-324 389v-389h-156v650h156v0v0l324 -405v405zM608 858v-115h-321v115h321z" />
    <glyph glyph-name="ntilde.alt1" horiz-adv-x="656" 
d="M356 532c211 0 256 -156 256 -277v-255h-155v255c0 82 -28 125 -120 125c-66 0 -116 -54 -117 -122v-258h-157v515h155v-41c1 1 54 58 138 58zM534 743v-115h-321v115h321z" />
    <glyph glyph-name="Otilde.alt1" horiz-adv-x="806" 
d="M421 667c189 0 342 -154 342 -343s-153 -342 -342 -342c-190 0 -343 153 -343 342s153 343 343 343zM421 132c106 0 192 86 192 192s-86 193 -192 193c-107 0 -193 -87 -193 -193s86 -192 193 -192zM608 858v-115h-321v115h321z" />
    <glyph glyph-name="otilde.alt1" horiz-adv-x="659" 
d="M344 530c150 0 272 -125 276 -275c0 -146 -125 -275 -275 -275c-142 0 -275 119 -275 274c-4 141 119 276 274 276zM345 116c76 0 138 63 138 139c0 77 -62 138 -139 138c-76 0 -138 -62 -138 -138c0 -77 62 -139 139 -139zM528 743v-115h-321v115h321z" />
    <glyph glyph-name="t_y" horiz-adv-x="928" 
d="M724 515h163s-152 -381 -205 -508c-110 -261 -222 -300 -291 -300v168c56 0 120 58 120 132l-152 390h-50v-164c0 -101 30 -100 87 -101l53 -139c-232 -48 -301 64 -301 189v215h-76v118h76v192h161v-192h156l131 -303z" />
    <glyph glyph-name="f_f" horiz-adv-x="771" 
d="M725 613c0 0 -134 20 -134 -58v-40h120v-121h-1h-119v-394v0h-156v0v394h-152v-394v0h-156v0v394h-91v121h91v40c0 151 144 207 316 149c-28 -22 -55 -53 -65 -102c-45 4 -95 0 -95 -47v-40h152v40c0 151 125 202 290 148v-90z" />
    <glyph glyph-name="y_t" horiz-adv-x="932" 
d="M872 394h-141v-164c0 -101 41 -100 98 -101l43 -139c-233 -48 -302 64 -302 189v215h-1c-49 -123 -123 -309 -157 -390c-110 -261 -222 -300 -291 -300v168c55 0 120 58 120 132l-199 511h153l131 -306l128 306h116v192h161v-192h141v-121z" />
    <glyph glyph-name="f_t" horiz-adv-x="857" 
d="M783 394h-140v-163c0 -100 41 -99 97 -100v-139c-193 -34 -258 64 -258 188v214h-170v-394v0h-156v0v394h-91v121h91v40c0 151 125 202 290 148v-96s-134 26 -134 -52v-40h170v186h161v-186h140v-121z" />
    <glyph glyph-name="f_j" horiz-adv-x="685" 
d="M338 515l252 -1v0v-527c0 -41 -8 -94 -24 -131c-16 -36 -37 -69 -65 -97c-28 -27 -61 -49 -97 -65c-20 -8 -40 -14 -60 -18v157c55 22 95 69 95 154v407h-100v-394h-1h-155v0v394h-91v121h91v40c0 190 151 212 316 158l-9 -112s-152 32 -152 -46v-40z" />
    <glyph glyph-name="f_y" horiz-adv-x="938" 
d="M713 515h162s-151 -382 -204 -508c-110 -262 -222 -301 -291 -301v169c55 0 120 58 120 132l-151 387h-47v-394v0h-156v0v394h-91v121h91v40c0 152 125 202 290 148v-110s-134 40 -134 -38v-40h152l131 -304z" />
    <glyph glyph-name="hyphen_greater" horiz-adv-x="953" 
d="M610 657l274 -274l-274 -274l-110 111l90 91h-484v144h485l-91 92z" />
    <glyph glyph-name="less_hyphen" horiz-adv-x="926" 
d="M380 109l-274 274l274 274l110 -111l-90 -91h484v-144h-485l91 -92z" />
    <glyph glyph-name="agrave.alt1" horiz-adv-x="654" 
d="M313 530c118 0 265 -95 265 -233v-297h-155v32c-133 -66 -346 -105 -376 109c-20 146 137 228 376 160c0 34 -33 82 -113 82c-96 0 -185 -44 -185 -44l-72 120c61 41 187 71 260 71zM201 166c16 -112 215 -41 222 46c-157 40 -233 24 -222 -46zM406 750l57 -117h-280
l-56 117h279z" />
    <glyph glyph-name="aacute.alt1" horiz-adv-x="668" 
d="M532 744l-57 -116h-280l56 116h281zM313 530c118 0 265 -95 265 -233v-297h-155v32c-133 -66 -346 -105 -376 109c-20 146 137 228 376 160c0 34 -33 82 -113 82c-96 0 -185 -44 -185 -44l-72 120c61 41 187 71 260 71zM201 166c16 -112 215 -41 222 46
c-157 40 -233 24 -222 -46z" />
    <glyph glyph-name="acircumflex.alt1" horiz-adv-x="638" 
d="M497 704l-51 -74l-132 90l-131 -90l-51 74l182 125v0v0v0v0zM313 530c118 0 265 -95 265 -233v-297h-155v32c-133 -66 -346 -105 -376 109c-20 146 137 228 376 160c0 34 -33 82 -113 82c-96 0 -185 -44 -185 -44l-72 120c61 41 187 71 260 71zM201 166
c16 -112 215 -41 222 46c-157 40 -233 24 -222 -46z" />
    <glyph glyph-name="atilde.alt2" horiz-adv-x="636" 
d="M529 684c-6 -5 -66 -50 -131 -50c-52 0 -118 47 -160 47c-27 0 -62 -23 -69 -29l-62 79c6 5 66 49 131 49c52 0 119 -46 160 -46c27 0 62 23 70 29zM313 530c118 0 265 -95 265 -233v-297h-155v32c-133 -66 -346 -105 -376 109c-20 146 137 228 376 160
c0 34 -33 82 -113 82c-96 0 -185 -44 -185 -44l-72 120c61 41 187 71 260 71zM201 166c16 -112 215 -41 222 46c-157 40 -233 24 -222 -46z" />
    <glyph glyph-name="adieresis.alt1" horiz-adv-x="634" 
d="M220 745c37 0 67 -30 67 -67s-30 -67 -67 -67s-66 30 -66 67s29 67 66 67zM433 745c37 0 67 -30 67 -67s-30 -67 -67 -67s-67 30 -67 67s30 67 67 67zM313 530c118 0 265 -95 265 -233v-297h-155v32c-133 -66 -346 -105 -376 109c-20 146 137 228 376 160
c0 34 -33 82 -113 82c-96 0 -185 -44 -185 -44l-72 120c61 41 187 71 260 71zM201 166c16 -112 215 -41 222 46c-157 40 -233 24 -222 -46z" />
    <glyph glyph-name="tt" horiz-adv-x="847" 
d="M763 402h-140v-165c0 -101 41 -100 97 -101l43 -139c-232 -48 -301 65 -301 189v216h-150v-165c0 -101 42 -100 98 -101l43 -139c-233 -48 -302 65 -302 189v216h-76v118h76v187h161v-187h150v187h161v-187h140v-118z" />
    <glyph glyph-name="macron" horiz-adv-x="0" 
 />
    </font>
</defs>
</svg>
